<?xml version="1.0" encoding="iso-8859-1"?>
<!-- Generator: Adobe Illustrator 18.0.0, SVG Export Plug-In . SVG Version: 6.00 Build 0)  -->
<!DOCTYPE svg PUBLIC "-//W3C//DTD SVG 1.1//EN" "http://www.w3.org/Graphics/SVG/1.1/DTD/svg11.dtd">
<svg fill='#2c2c2c' version="1.1" id="Capa_1" xmlns="http://www.w3.org/2000/svg" xmlns:xlink="http://www.w3.org/1999/xlink" x="0px" y="0px"
	 viewBox="0 0 492.425 492.425" style="enable-background:new 0 0 492.425 492.425;" xml:space="preserve">
<path id="XMLID_586_" d="M228.398,137.833V92.355c0.008-9.697-5.364-18.611-13.946-23.123c-8.576-4.529-18.959-3.935-26.964,1.541
	L10.172,192.148C3.821,196.497,0.014,203.679,0,211.369c-0.025,7.692,3.733,14.903,10.052,19.286l177.283,122.947
	c7.99,5.559,18.405,6.201,27.02,1.688c8.623-4.512,14.019-13.424,14.027-23.156v-38.301
	c93.167,2.682,174.585,50.617,221.525,122.049c5.484,8.334,15.963,12.189,25.775,9.475c9.805-2.713,16.629-11.371,16.726-21.262
	c0.009-0.885,0.017-1.768,0.017-2.65C492.425,258.31,374.944,142.091,228.398,137.833z"/>
<g>
</g>
<g>
</g>
<g>
</g>
<g>
</g>
<g>
</g>
<g>
</g>
<g>
</g>
<g>
</g>
<g>
</g>
<g>
</g>
<g>
</g>
<g>
</g>
<g>
</g>
<g>
</g>
<g>
</g>
</svg>
