<svg id="Group_124" data-name="Group 124" xmlns="http://www.w3.org/2000/svg" width="45.205" height="27.541" viewBox="0 0 45.205 27.541">
  <g id="Group_123" data-name="Group 123" transform="translate(0 0)">
    <path id="Path_52" data-name="Path 52" d="M51.324,7.679a1.742,1.742,0,0,0-1.631-.88c-4.44,0-8.881.042-13.321,0a2.308,2.308,0,0,0-2.307,1.383c-1.131,2.011-2.3,4.021-3.477,6.032-.5.838-.964,1.718-1.467,2.556a.327.327,0,0,1-.166.166c-.041-.042-.126-.083-.166-.166-.5-.838-.964-1.718-1.467-2.556-1.173-2.011-2.346-4.021-3.477-6.032A2.309,2.309,0,0,0,21.539,6.8c-4.44.042-8.881,0-13.321,0a1.825,1.825,0,0,0-1.634.88,1.8,1.8,0,0,0,.083,1.885c.5.838,1.005,1.718,1.508,2.556,1.383,2.388,2.723,4.775,4.105,7.121,1.424,2.513,2.891,4.985,4.357,7.5,1.3,2.221,2.6,4.479,3.9,6.7a1.576,1.576,0,0,0,1.592.88,1.7,1.7,0,0,0,1.508-1.005c.332-.629.67-1.215,1.048-1.8,1.131-2.011,2.3-3.982,3.477-5.991.249-.461.545-.88.838-1.383.294.5.545.964.838,1.383,1.173,2.011,2.3,3.982,3.477,5.991.332.586.713,1.215,1.048,1.8a1.833,1.833,0,0,0,1.508,1.005,1.642,1.642,0,0,0,1.592-.88c1.3-2.221,2.6-4.479,3.9-6.7,1.467-2.513,2.891-4.985,4.357-7.5,1.383-2.388,2.723-4.775,4.105-7.121.5-.88,1.005-1.718,1.508-2.556a2,2,0,0,0-.006-1.885ZM26.86,20.916c-1.3,2.3-2.639,4.562-3.938,6.828-.249.419-.5.88-.838,1.383C18.44,22.843,14.879,16.6,11.235,10.318c.21,0,.332-.042.461-.042,2.975,0,5.907,0,8.881-.042a.647.647,0,0,1,.67.377l4.775,8.3c.249.461.545.922.8,1.383A.672.672,0,0,1,26.86,20.916Zm9.048,8.212c-.294-.545-.586-.964-.838-1.383-1.3-2.262-2.639-4.562-3.938-6.828a.716.716,0,0,1,0-.586c.249-.461.545-.922.8-1.383l4.775-8.3a.647.647,0,0,1,.67-.377c2.975,0,5.907,0,8.881.042a1.879,1.879,0,0,1,.461.042q-5.4,9.362-10.808,18.767Z" transform="translate(-6.357 -6.791)"/>
  </g>
</svg>
